/* XPM */
static char *_464919c7c6c4721d09e36c511e1db99jsEHLRFFMB91LS1J[] = {
/* columns rows colors chars-per-pixel */
"32 32 177 2 ",
"   c #020201",
".  c #0B0101",
"X  c #010A00",
"o  c #0A0A02",
"O  c #01020B",
"+  c #130102",
"@  c #1D0F04",
"#  c #1E0F0A",
"$  c #1F1607",
"%  c #1D1805",
"&  c #13100B",
"*  c #1E150C",
"=  c #1F1D0E",
"-  c #020013",
";  c #1D0E13",
":  c #171310",
">  c #1D1314",
",  c #330E06",
"<  c #251505",
"1  c #2A1407",
"2  c #2D1906",
"3  c #22150C",
"4  c #28170D",
"5  c #24190F",
"6  c #2B1A0C",
"7  c #331E0D",
"8  c #221612",
"9  c #241A13",
"0  c #2B1C12",
"q  c #261F19",
"w  c #311F12",
"e  c #2E220F",
"r  c #2D2C0D",
"t  c #362706",
"y  c #3D2705",
"u  c #3C2803",
"i  c #33230E",
"p  c #3C250D",
"a  c #332C0C",
"s  c #3C290D",
"d  c #2C2215",
"f  c #282719",
"g  c #352414",
"h  c #3B2614",
"j  c #362B15",
"k  c #3C2A14",
"l  c #352419",
"z  c #3A2619",
"x  c #332C1C",
"c  c #3D2A1A",
"v  c #283315",
"b  c #373117",
"n  c #3C3111",
"m  c #37321C",
"M  c #3B331C",
"N  c #3D2C21",
"B  c #3C2422",
"V  c #471F0D",
"C  c #421D16",
"Z  c #41260D",
"A  c #422B0F",
"S  c #44350E",
"D  c #4E310F",
"F  c #4D380D",
"G  c #412613",
"H  c #4A2714",
"J  c #422A12",
"K  c #412911",
"L  c #412D12",
"P  c #462C12",
"I  c #402A15",
"U  c #422816",
"Y  c #422C13",
"T  c #482E15",
"R  c #41271A",
"E  c #432719",
"W  c #4B241F",
"Q  c #402B1A",
"!  c #402919",
"~  c #402D1A",
"^  c #422C1A",
"/  c #4B291B",
"(  c #423210",
")  c #453115",
"_  c #443214",
"`  c #4B3515",
"'  c #4C3817",
"]  c #413119",
"[  c #473319",
"{  c #45351A",
"}  c #44331B",
"|  c #49351A",
" . c #4B331A",
".. c #4E391E",
"X. c #50341E",
"o. c #462722",
"O. c #442C21",
"+. c #4C2A20",
"@. c #433422",
"#. c #4A3820",
"$. c #73417C",
"%. c #A22E2F",
"&. c #B42E2B",
"*. c #AB3122",
"=. c #B43024",
"-. c #B02E30",
";. c #B82D32",
":. c #B02C3A",
">. c #AE3733",
",. c #A5313A",
"<. c #8F4C3C",
"1. c #9B5A3C",
"2. c #8A6F22",
"3. c #8A6F2A",
"4. c #806D35",
"5. c #A53146",
"6. c #D15949",
"7. c #CD5056",
"8. c #DD565A",
"9. c #D35C5C",
"0. c #E0555A",
"q. c #DB4D63",
"w. c #DD4D70",
"e. c #E85164",
"r. c #E15874",
"t. c #E4626A",
"y. c #CF9B5F",
"u. c #D89E55",
"i. c #DD9759",
"p. c #E49D5F",
"a. c #DBA25F",
"s. c #DDA95E",
"d. c #D3A65C",
"f. c #C89961",
"g. c #D59F64",
"h. c #DC9D67",
"j. c #D69668",
"k. c #DA9B69",
"l. c #DB9A7E",
"z. c #E49C6C",
"x. c #CCA263",
"c. c #C0AB68",
"v. c #D2A267",
"b. c #DCA763",
"n. c #D4A16B",
"m. c #DAA768",
"M. c #D2AA6D",
"N. c #CEA178",
"B. c #D6A675",
"V. c #D6AE73",
"C. c #DCA378",
"Z. c #E7A366",
"A. c #7E5090",
"S. c #784588",
"D. c #EDBF8E",
"F. c #EABE99",
"G. c #F1BD96",
"H. c #F8BE95",
"J. c #F1BE9F",
"K. c #FCBB9B",
"L. c #F6BEAD",
"P. c #DCC196",
"I. c #E3C38F",
"U. c #F4C889",
"Y. c #E0C195",
"T. c #E8C897",
"R. c #E4C79F",
"E. c #EBC79C",
"W. c #EDCB9C",
"Q. c #F4C391",
"!. c #F2C89A",
"~. c #F4C49C",
"^. c #EBC7A7",
"/. c #EDC2A2",
"(. c #E8C3A8",
"). c #E4CBA2",
"_. c #F0C2A1",
/* pixels */
"* * 3 9 & : 9 8 3 3 3 3 3 3 * * 8 8 3 * * * 3 3 * * 5 5 * * * 9 ",
"k I G k 6 6 k p G G h G I I I I I I I I A A I I Q k k k k k k Q ",
"k k I c < 6 ] ) k k k k k k k k c c c c c c k k k k k k k k k k ",
"k k c c 3 0 @.| c c z z z z z z k k k k k k s s k k k k k k k k ",
"I J I R 1 6 I P T T I I I I I I R k k k G I I I G I I R R R R G ",
"z c h z 5 0 g g g g g g h z z z k k k k ] ] } } S S _ ( S ( S S ",
"5 0 3 5 * * 5 5 3 3 3 3 5 5 5 5 3 3 3 3 5 5 9 9 9 9 8 > > 8 9 9 ",
"h T p s k c k I I k k k k k k k k k k k k k k k k k i 7 g z k k ",
"c k k Q ~ Q c k j P       h c u I j g / g k H k s p ~ 6 h z I I ",
") A s s s s s s O.  Y.^.R.  c k k M j k G G b h } k c 6 g z k k ",
"s s L | | } L L . ).~.Q.Q.E.O ~ G V X.r p c h R h g 6 6 6 z c c ",
"z z h z z g g g o y.D.K.I.J._.  x C 1 R v k h z l g 0 0 0 g g g ",
"4 < < 4 6 6 6 6 . c.Z./.E.W.L.!.  8 f = , < 6 % 5 5 9 4 6 < 6 6 ",
"6 i g c ] } } | ' . x.n.G.P.T.0.r.  o.l N E E m 4 0 g g c g c z ",
"I k k p s s L ) } F O z.M.!.9.q.&.;.X / h c h G 0 g g ~ I k k k ",
"R R R Q I I G I k _ D   n.=.w.>.g.B.l.X j k I s 0 g 6 ~ p I k k ",
"c k k ~ h Q c ^ k n  .5 . -.*.h.E.(.H.U.O G W a 8 0 g z k k k R ",
"k k t k k c h k c z Q a - S.%.v.I./.J./.W.  c N 0 d g z k k k z ",
"4 4 3 5 3 3 3 0 < > 8 . ,.$.A.h.b.F.H.k.g.d.  ; * 3 3 3 < 3 4 4 ",
"g k j j d 6 g } f p O 8.5.:.+   i.p.V.N.3.z.u.+ z k k k k k k k ",
"k I k z g 6 h } z   7.e.6.. k x   x.k.2.s.<.v.  c c c c c c c c ",
"R k h z l 0 z g j   t.9.O j P p y - m.a.4.1.j.  P L A A P P P P ",
"L s s k k i } t / y O . V z C _ j +.  f.C.d.+ m k k k k k I I I ",
"k h c z 0 0 @.i k Z a B k ` s x R x c o     c Z z z k k k k k s ",
"z k g e g e M 6  ...s k k ~ k I k k k k k k k z k z N c h s k z ",
"< 6 3 3 3 3 0 # @ 3 $ 5 d 9 3 $ 3 3 3 * 3 3 3 3 2 6 0 l h i i g ",
"k ~ h ~ z z c z O.c z g l 0 z z z z z z k k k c g 0 8 0 c k g z ",
"s k p I p p k k G p T } k 7 I I I I I I J J T [ c l 3 4 z k h c ",
"k I h T I Q c Q c z k } 6 6 z c j j z z z k c ] h w 3 3 h T G k ",
"k k p k k I p p k L ] #.i 7 h s c k k k k k k s k g 4 4 h T k h ",
"} } I s | ' _ _ I p p p 2 7 ~ } I I A I I J A Z I 0 3 * 0 g g 0 ",
"0 0 6 < z c k k 9 9 9 9 9 > q * 5 5 6 0 l c c z k 6 > 9 9 6 0 0 "
};
