/* XPM */
static char *_14a8aeceb9042f0c6e37e3d063a4b4bwfCwqS3vp6XiRCTl[] = {
/* columns rows colors chars-per-pixel */
"32 32 11 1 ",
"  c #20140E",
". c #23160F",
"X c #241910",
"o c #291B10",
"O c #2F1F14",
"+ c #352312",
"@ c #362412",
"# c #3A2713",
"$ c #3B2813",
"% c #3C2913",
"& c #3E2A14",
/* pixels */
"                                ",
"                                ",
"                                ",
"                                ",
"                                ",
"                                ",
"          XXXXXXXXXXXX          ",
"      oo+$%$$$$$$$$$$%$+oo      ",
"     ooo+%$$$$$$$$$$$$%+ooo     ",
"    oo@#$$$$$$$$$$$$$$$$#@oo    ",
"    oo#$$$$$$$$$$$$$$$$$%#oo    ",
"   ooo@##$%%%%%%%%%%%%$##@ooo   ",
"         XXXXXXXXXXXXXX         ",
"   oo+#%%%%%%%%%%%%%%%%%%#+oo   ",
"  ooo+$%%%%%%%%%%%%%%%%%%$+ooo  ",
"  oo++#%%%%%%%%%%%%%%%%%%#++oo  ",
"  oo%&%%%%%%%%%%%%%%%%%%%%&$oo  ",
"  oo+%&%%%%%&&&&&&&&%%%%%&$+oo  ",
"                    @@          ",
" +%&&&&&&&&&&&&&&&&&&&&&&&&&&$+ ",
" +&&&&&&&&&&&&&&&&&&&&&&&&&&&&+ ",
" +$&&&%%%%%%%%%%%%%%%%%%%%&&&$+ ",
" +$$$$$$$$$$$$$$$$$$$$$$$$$$$$+ ",
"@+$$$$$$$$$$$$$$$$$$$$$$$$$$$$+@",
"@++%%%%%%%%%%%%%%%%%%%%%%%%%%++@",
"            @o            O@@   ",
" &&&&&&&&&&&&&&&&&&&&&&&&&&&&&& ",
" &%%%%%%%%%%%%%%%%%%%%%%%%%%%%& ",
" &%%%%%%%%%%%%%%%%%%%%%%%%%%%%& ",
" &&&&&&&&&&&&%%%%%%&&&&&&&&&&&& ",
" &&%%$$$$$$$$$%%%%$$$$$$$$$%%&& ",
" &&$$$$$$$$$$$$$$$$$$$$$$$$$$&& "
};
