/* XPM */
static char *b1bbd511ac9d46f6a5c82e116a2921bfE6SyT6CRLrNDdpn4[] = {
/* columns rows colors chars-per-pixel */
"32 32 18 1 ",
"  c #20140E",
". c #231610",
"X c #241910",
"o c #281911",
"O c #2B1C13",
"+ c #2D1E12",
"@ c #2F1F14",
"# c #301F11",
"$ c #322212",
"% c #342312",
"& c #342413",
"* c #352314",
"= c #392713",
"- c #3A2714",
"; c #3B2814",
": c #3E2A14",
"> c #402C14",
", c #493516",
/* pixels */
"                               X",
":::: o::::::::::::::::::::::::::",
":::: o,:::::::::::::::::::::::::",
":::: o,,::::::::::::::::::::::::",
":::: +%,,,::::::::::::::::::::::",
":::: o%%%%%%:::::::::,,,,,,:,:,,",
"XXXX XXXXXXXXXXXXXXXXXXXXXXX.XXX",
"::::::::::::::::::::::::::%o*=::",
"::::::::::::::::::::::::=%,o*:::",
",:::::::::::::::::::::::>,%o*:::",
":::,,,:::::::::::::::::::=ooO:::",
"============$$=$$$%--===%%ooO$--",
"XXXXXXXXXXXXXXXXXXXXXXXXXXXXXXXX",
"$$$:,,,,,,,O:::,,:::::::Xo$:::::",
":::::::,,,,O:::::,,:::::O$$:::::",
":::::::::,,O::::::::::::O$$:::::",
"::::::::::,@::,:::::::::Oo$:::::",
":::::::::::&::::::::::::Xo::::::",
"                    &&          ",
"::::$Oo,$$::::::::::::::::::::::",
"::::$O:,=:::::::::::::::::::::::",
"::::;O:$::::::::::::::>>>>:>>,:,",
"::::=O,:::::::::::::::::::::::::",
":::=$O,$:::::,::::::::::::::::::",
":;=$$O,o,,::::::::::::::::::::::",
" #          &O            @&&&&&",
"::::::::::::$O:::::::::::$ &::::",
"::::::::::::,O::::::::,,:$  ::::",
":::::::::::,oO:::::::::::$  ::::",
"::::::::::,,$O:::::::::::$  ::::",
",,::,,,::::$$O:,,::::::::$  $$$o",
"OXXX::::XXXXX XXXXXX:::::X XXOOO"
};
