/* XPM */
static char *result[] = {
/* columns rows colors chars-per-pixel */
"32 32 36 1 ",
"  c black",
". c #010000",
"X c #000100",
"o c #000001",
"O c #010001",
"+ c #000101",
"@ c #010101",
"# c #020000",
"$ c #020001",
"% c #000201",
"& c #000003",
"* c #010402",
"= c #050204",
"- c #090100",
"; c #0E0100",
": c #030108",
"> c #090909",
", c #150B09",
"< c #160D10",
"1 c #2E2B27",
"2 c #2D2D2D",
"3 c #423D38",
"4 c #695A47",
"5 c #646F77",
"6 c #A96F37",
"7 c #D95763",
"8 c #BC9035",
"9 c #EEAA67",
"0 c #D2B997",
"q c #F7F9E8",
"w c #F7F7F5",
"e c #F8F9F1",
"r c #FAF8F3",
"t c #F5FCFC",
"y c #FDFBF9",
"u c None",
/* pixels */
"uuuuuuuuuuuuuuuuuuuuuuuuuuuuuuuu",
"uuuuuuuuuuuuuuuuuuuuuuuuuuuuuuuu",
"uuuuuuuuuuuuuuuuuuuuuuuuuuuuuuuu",
"uuuuuuuuuuuuuuuuuuuuuuuuuuuuuuuu",
"uuuuuuuuuuuuuuuuuuuuuuuuuuuuuuuu",
"uuuuuuuuuuuuuuuuuuuuuuuuuuuuuuuu",
"uuuuuuuuuuuuuuuuuuuuuuuuuuuuuuuu",
"uuuuuuuuuuuuuuuuuuuuuuuuuuuuuuuu",
"uuuuuuuuuuuuuuuuuuuuuuuuuuuuuuuu",
"uuuuuuuuuuuuuuuuuu  @   uuuuuuuu",
"uuuuuuuuuuuuuuuu  9-. o;6uuuuuuu",
"uuuuuuuuuuuuuuu<99   reX&6uuuuuu",
"uuuuuuuuuuuuuu:9    q  t $6uuuuu",
"uuuuuuuuuuuuu*9 ##. owy+   6uuuu",
"uuuuuuuuuuu>=9 ##   e  e    uuuu",
"uuuuuuuuuu,99.     5555555  uuuu",
"uuuuuuuuuu%     55500 00015 uuuu",
"uuuuuuuuuu # X550000 000001uuuuu",
"uuuuuuuuuuu O50000  0002001uuuuu",
"uuuuuuuuuuuuu11110  444 001uuuuu",
"uuuuuuuuuuuuuu100 444744001uuuuu",
"uuuuuuuuuuuuu1 11104444001uuuuuu",
"uuuuuuuuuuuu10  100000001uuuuuuu",
"uuuuuu11uuu1000  1111111uuuuuuuu",
"uuuuu1441u100000       uuuuuuuuu",
"uuuu1441uu1000000008001uuuuuuuuu",
"uuuu141uu10000000000001uuuuuuuuu",
"uuuu1001100000000000001uuuuuuuuu",
"uuuuu100000000000000001uuuuuuuuu",
"uuuuuu11114404400400441uuuuuuuuu",
"uuuuuuuuu14434434434441uuuuuuuuu",
"uuuuuuuuuu11u11u11u111uuuuuuuuuu"
};
