/* XPM */
static char *b07459a79be9403884725841e0021ed7HT1luYiE1H8F7bSn[] = {
/* columns rows colors chars-per-pixel */
"32 32 205 2 ",
"   c #020202",
".  c #0A0102",
"X  c #000802",
"o  c #080904",
"O  c #02010B",
"+  c #0D050B",
"@  c #040F0B",
"#  c #130100",
"$  c #1E0D03",
"%  c #15130C",
"&  c #1E150D",
"*  c #020112",
"=  c #0F0F19",
"-  c #050318",
";  c #171310",
":  c #1D1312",
">  c #1C1817",
",  c #220200",
"<  c #210C0A",
"1  c #290B08",
"2  c #231204",
"3  c #281207",
"4  c #2C1905",
"5  c #22150C",
"6  c #23190E",
"7  c #2B1A0D",
"8  c #29150A",
"9  c #351C04",
"0  c #321E0B",
"q  c #231513",
"w  c #241B13",
"e  c #2B1D13",
"r  c #24161B",
"t  c #231D1C",
"y  c #281A18",
"u  c #311D12",
"i  c #371E1A",
"p  c #1B201C",
"a  c #2E210C",
"s  c #2F2B0B",
"d  c #372600",
"f  c #3B2B05",
"g  c #34230D",
"h  c #3C250C",
"j  c #32280B",
"k  c #3C2A0D",
"l  c #3B2607",
"z  c #39320B",
"x  c #2D2312",
"c  c #20221B",
"v  c #242819",
"b  c #2B2C1F",
"n  c #2D2A19",
"m  c #352413",
"M  c #3C2614",
"N  c #362B13",
"B  c #3D2A14",
"V  c #33241B",
"C  c #3A2519",
"Z  c #352A1D",
"A  c #3C2A1A",
"S  c #273512",
"D  c #3B3014",
"F  c #3D311E",
"G  c #000922",
"H  c #171321",
"J  c #321F21",
"K  c #242B25",
"L  c #2D2B2A",
"P  c #332522",
"I  c #322C23",
"U  c #3C2B21",
"Y  c #312C2C",
"T  c #3C2D2B",
"R  c #392423",
"E  c #2D3222",
"W  c #3D3421",
"Q  c #39302B",
"!  c #2E2433",
"~  c #272A32",
"^  c #322632",
"/  c #372A3C",
"(  c #431F07",
")  c #422305",
"_  c #462208",
"`  c #412B0D",
"'  c #4B2C0A",
"]  c #482807",
"[  c #44340E",
"{  c #412614",
"}  c #412D12",
"|  c #422916",
" . c #422B13",
".. c #412719",
"X. c #412B1A",
"o. c #402919",
"O. c #412E1B",
"+. c #422C1B",
"@. c #482E1F",
"#. c #4C2914",
"$. c #50281C",
"%. c #562E14",
"&. c #453115",
"*. c #433215",
"=. c #4D3416",
"-. c #43331A",
";. c #49351A",
":. c #4B381B",
">. c #473919",
",. c #51331B",
"<. c #412A24",
"1. c #443222",
"2. c #4A3621",
"3. c #42382C",
"4. c #402534",
"5. c #4A3C39",
"6. c #434013",
"7. c #5B5C34",
"8. c #65562D",
"9. c #625B3D",
"0. c #695837",
"q. c #60613F",
"w. c #6C623E",
"e. c #575048",
"r. c #5E5B48",
"t. c #6A5544",
"y. c #655A46",
"u. c #6D5847",
"i. c #665A4C",
"p. c #6B5C4D",
"a. c #62564A",
"s. c #79524B",
"d. c #694F50",
"f. c #69595A",
"g. c #6F6041",
"h. c #6F624F",
"j. c #6C6050",
"k. c #716154",
"l. c #6B6C6C",
"z. c #677169",
"x. c #6B706C",
"c. c #686B70",
"v. c #656D7A",
"b. c #6D6B7B",
"n. c #6D657A",
"m. c #667279",
"M. c #A16F3E",
"N. c #A96C33",
"B. c #B3723C",
"V. c #A46E40",
"C. c #D15E6B",
"Z. c #AE9737",
"A. c #F9A35A",
"S. c #ED9D68",
"D. c #DFAD6E",
"F. c #D7BA78",
"G. c #E8AC6A",
"H. c #E6AE71",
"J. c #F2AE71",
"K. c #5D7285",
"L. c #BDBF8D",
"P. c #C9AE83",
"I. c #C6BE8F",
"U. c #CFB98A",
"Y. c #CEB283",
"T. c #D2BA8D",
"R. c #D7B98C",
"E. c #C1B494",
"W. c #C9B694",
"Q. c #CBB996",
"!. c #C6B29B",
"~. c #CEB59C",
"^. c #C3B898",
"/. c #CCBA9B",
"(. c #C3BB94",
"). c #D5B591",
"_. c #D3BB94",
"`. c #D3B69D",
"'. c #DDB59A",
"]. c #D3BA9B",
"[. c #D9BB9B",
"{. c #DDBD97",
"}. c #CAB6A1",
"|. c #C2BFA0",
" X c #CBBDA2",
".X c #CDB6A8",
"XX c #CCBAAA",
"oX c #D3BBA4",
"OX c #D7B6A2",
"+X c #CFBEB7",
"@X c #E7B2A2",
"#X c #CDC28C",
"$X c #CFC296",
"%X c #CDC09A",
"&X c #C3C598",
"*X c #D5C390",
"=X c #D7C59B",
"-X c #E0C09A",
";X c #DDC5AC",
":X c #D7C1AC",
">X c #F7FEEC",
",X c #FFF3E8",
"<X c #EFFEFB",
"1X c #FCFEFC",
"2X c #FBFCF6",
/* pixels */
"& & 5 w % ; w q 5 5 5 5 5 5 & & q q 5 & & & 5 5 & & 6 6 & & & w ",
"B  .{ B 7 7 B h { B B {  . . . . . . . .`  . . .X.M M B B M M X.",
"B B | A 8 7 -.&.B B B B B B B B A A A A A A A B B B M B B B B B ",
"B B A A 5 e 1.;.A A C C C C C C B B B B B B k k B B B B B B B B ",
" . .| ..3 7 |  . . . . . . . . ...M M M { | | | { | | ......{ { ",
"C A M C 6 e m m m m m m M C C C B B B B *.-.-.-.[ [ *.*.[ *.[ [ ",
"6 e 5 6 & & 6 6 5 5 5 5 6 6 w 6 5 5 5 5 6 6 w w w w q : : q w w ",
"M +.h k B A B | B B B B B B B B B B B B B B B B B B g 0 m C B B ",
"A B B X.+.X.A B C A _ A s [ h | A F O.M k  .j B V g ,.0 x U k +.",
"&.` k h k k k k D ) O._  .I V B ] ( O   O   #   ' %.c t m ] A m ",
"k k } ;.;.;.} }  .M C <.C X.D z   . H.,     G # B.K e w 4 C -. .",
"C C M C C m m m M Z d z g y i < J.D.O X   2X,XO . M.u 9 c P 9 m ",
"8 8 8 8 7 7 7 7 q 9 6 4 t 8 X G.        >X  X 1X  # N.5 e 6 q h ",
"7 g m A -.-.-.;.=.*.>.% C + S.O   . .   * <X1X      o V.B I Z C ",
" .B B k k k } &.>.=.@.= . A.@     O   O 1X  . ,XO X   X ' #.m U ",
"......X.| | {  .k W 2 G.D.X   * X X O z.x.c.m.K.l.m.    V ) #.C ",
"M  .k B k +.M A ..N     *     X n.l.v.|.[.  OX$XoXZ l.  U  .h B ",
"B B k B B A m B @.B     O + v.b.&X[.L.@X  E.#X'._. XI I A  .B A ",
"8 8 5 y q q 5 8 ; H 5 - . b.oXQ.}.Q.#   OX#X{.^ ).;XV : & 2 $ 5 ",
"N C C A e 7 m *.g h ` k s L L V Y .X    8.i.s.X T.W.B C B -.B C ",
"} }  .+.m 7 B &.s B A h I Z V =XR.  d.r.k.C.e.p.oXXXZ U M X.M A ",
"| B M A V e A M ..M $.k B v o p b E -X7.i.t.h.T. XB B  .} :.` =.",
"` ` ` ` k 7 F N D B V @.T oX  . 4.E.[.[.Y._.].).Z C C +.-.4 2...",
"C M B M x q T P B m -.V _.].(.    ~ S P / K ~ E C X.| B k -.B B ",
"B C A a x Z y.9.I W N }._.].`._.      O       N B C U A B k B C ",
"3 7 < r P a.i.T & & F Q.~.].U.].OX!.*XZ.[.*XR 1 4 7 e V M g g m ",
"M 1.O.g U f.P j B C /.].`.`.[.`._.;XP.'.`.XXJ X.m e q e A B m A ",
"` l B U m %X^.T V !.:X~.T.U._.R.W.%XoX[.oX&XY 6.A V 5 8 C B M O.",
"M +.M &.A P +XE. X$X/./._.].oX`.].oX_.F.`.I.x B M u 5 3 M  .{ B ",
"B k B C B k h U C e t.g. X0.8./.].u.].`.t.i.T A B m 8 8 M  .B M ",
"*.:.k f :.2.B f Z V h.y.3.a.j.5.p.9.3.w.i.q.! B  .e 5 & e m m e ",
"m 2 u 8 C +.A C r w I Y w I Y 5 Z ! > P ^ b Z ` B 7 : w w 7 e e "
};
