/* XPM */
static char *dee57d8ddaea40f3a2d38394353138a9PWj4Xc4tuyNaFHrC[] = {
/* columns rows colors chars-per-pixel */
"32 32 15 1 ",
"  c None",
". c #2E2B27",
"X c #695A47",
"o c #D2B997",
"O c black",
"+ c #5A2801",
"@ c #291200",
"# c #D95763",
"$ c #BC9035",
"% c #4D4840",
"& c #F0A55B",
"* c #423D38",
"= c #C38345",
"- c #BC824A",
"; c #EEAA67",
/* pixels */
"                                ",
"                                ",
"                                ",
"                                ",
"                                ",
"                                ",
"                                ",
"                                ",
"                                ",
"                                ",
"                                ",
"                                ",
"       .        ...    ...      ",
"      .X.      .XXX.  .XXX.     ",
"      .X.      .X.X.  .X.X.     ",
"      .X.      ..o.o..o.o..     ",
"     .XX.      .ooooooooOO.     ",
"    .oo.      .oooooooOOoo.     ",
"    .o.       .oooooOOooo+o.    ",
"    .o.       .oooooOOXXX@o.    ",
"    .oo.      ....oOXXX#XXo.    ",
"    .ooo........ooOooXXXXoo.    ",
"    .ooooooooooO...ooooooo.     ",
"     .oooooooooOO.ooooooo.      ",
"     .ooooooooooOO.......       ",
"      ..oooooooooooo$oo.        ",
"       .ooooooooooooooo.        ",
"       .oooooooooooooo.         ",
"        .Xoo%XX%X%o&&.          ",
"         .Xo*XX*X*=--           ",
"         .X..X..X.=;;           ",
"          .. .. .. =            "
};
