/* XPM */
static char *f6339c3e74774aac94175807bb8f7543Dvru68BaiJov7k24[] = {
/* columns rows colors chars-per-pixel */
"31 32 15 1 ",
"  c None",
". c #2E2B27",
"X c #695A47",
"o c #D2B997",
"O c black",
"+ c #5A2801",
"@ c #291200",
"# c #D95763",
"$ c #BC9035",
"% c #4D4840",
"& c #F0A55B",
"* c #423D38",
"= c #C38345",
"- c #BC824A",
"; c #EEAA67",
/* pixels */
"                               ",
"                               ",
"                               ",
"                               ",
"                               ",
"                               ",
"                               ",
"                               ",
"                               ",
"                               ",
"                ...    ...     ",
"       .       .XXX.  .XXX.    ",
"      .X.      .X.X.  .X.X.    ",
"      .X.      ..o.o..o.o..    ",
"      .X.      .ooooooooOO.    ",
"     .XX.     .oooooooOOoo.    ",
"    .oo.      .oooooOOooo+o.   ",
"    .o.       .oooooOOXXX@o.   ",
"    .o.       ....oOXXX#XXo.   ",
"    .oo.       .ooOooXXXXoo.   ",
"    .ooo.......O...ooooooo.    ",
"    .ooooooooooOO.ooooooo.     ",
"     .ooooooooooOO.......      ",
"     .oooooooooooOOOOOOO       ",
"      ..oooooooooooo$oo.       ",
"       .ooooooooooooooo.       ",
"       .ooooooooooooooo.       ",
"       .oooooooooooooo.        ",
"       .Xoo%oXX%oX%o&&&        ",
"       .XXo*XXX*XX*=---        ",
"       .XX..XX..XX.=;;;        ",
"        ... ... ... ==         "
};
