/* XPM */
static char *result[] = {
/* columns rows colors chars-per-pixel */
"32 32 16 1 ",
"  c black",
". c #291200",
"X c #2E2B27",
"o c #5A2801",
"O c #423D38",
"+ c #4D4840",
"@ c #695A47",
"# c #D95763",
"$ c #BC9035",
"% c #BC824A",
"& c #C38345",
"* c #F0A55B",
"= c #EEAA67",
"- c #B6A48F",
"; c #D2B997",
": c None",
/* pixels */
"::::::::::::::::::::::::::::::::",
"::::::::::::::::::::::::::::::::",
"::::::::::::::::::::::::::::::::",
"::::::::::::::::::::::::::::::::",
"::::::::::::::::::::::::::::::::",
"::::::::::::::::::::::::::::::::",
"::::::::::::::::::::::::::::::::",
"::::::::::::::::::::::::::::::::",
"::::::::::::::::XXX::::XXX::::::",
":::::::::::::::X@@@X::X@@@X:::::",
":::::::::::::::X@X@X::X@X@X:::::",
":::::X:::::::::XX;X;XX;X;XX:::::",
"::::X@X::::::::X;;;;;;;;  X:::::",
"::::X@X:::::::X;;;;;;;  ;;X:::::",
"::::X@X:::::::X;;;;;  ;;;o;X::::",
"::::X@X:::::::X;;;;;  @@@.;X::::",
"::::X@X:::::::XXXX; @@@#@@;X::::",
"::::X@X::::::::X;; ;;@@@@;;X::::",
"::::X;;X::::::X XXX;;;;;;;X:::::",
"::::X;;X::::XX;  X;;;;;;;X::::::",
"::::X;;;XXXX;;;;  XXXXXXX:::::::",
"::::X;;;;;;;;;;;;       ::::::::",
":::::X;;;;;;;;;;;;;;$;;X::::::::",
":::::X;;;;;;;;;;;;;;;;;X::::::::",
"::::::XX;;;;;;;;;;;;;;;X::::::::",
":::::::X;;;;;;;;;;;;;;X:::::::::",
":::::::X;;;;;;;+;@+;***:::::::::",
":::::::X;;;;-;;O@@O&%%%:::::::::",
":::::::X;;;+;@XX@@X&===:::::::::",
":::::::X@@;O@@X:XXX:&&::::::::::",
":::::::X@@XX@@X:::::::::::::::::",
"::::::::XXX:XX::::::::::::::::::"
};
