/* XPM */
static char *_7b26c7d34684861cf76dd1f2742b33dSmjri4DBvmbMoGih[] = {
/* columns rows colors chars-per-pixel */
"32 32 5 1 ",
"  c #221609",
". c #25170A",
"X c #27190A",
"o c #28190A",
"O c #2A1B0A",
/* pixels */
"                                ",
"                                ",
"   oXX oooooo     Xoooooo XXo   ",
"   oXX oooooo     Xoooooo XXo   ",
"   oXX oooooo     Xoooooo XXo   ",
"   oXX oooooo     Xoooooo XXo   ",
"   oXX oooooo   . ooooooo XXo   ",
"   oXX.oooooo   ..ooooooo.XXo   ",
"   oooXoooooo.....ooooooo.oXo   ",
"   oooooooooo.....ooooooooooo   ",
"   oooooooooo ..  ooooooooooo   ",
"   oooooooooo  .  ooooooooooX   ",
"   oooooooooo     ooooooooooX   ",
" . oooooooooo     ooooooooooX . ",
" . ooooooooooo  ..ooooooooooX . ",
" . ooooooooooo  ..ooooooooooX . ",
" . ooooooooooo    oooooooooo  . ",
" . ooooooooooo    oooooooooo  . ",
" . ooooooooooo..  oooooooooo  . ",
" . ooooooooooo..  oooooooooo  . ",
" X ooooooooooo ...oooooooooo  . ",
" ..ooooooooooo  ..oooooooooo    ",
" . ooooooooooo  ..oooooooooo    ",
" . ooooooooooo    oooooooooo    ",
"   ooooooooooo    ooooooooooo   ",
"   ooooooooooo    ooooooooooo   ",
" . ooooooooooo    ooooooooooo . ",
" . ooooooooooo    ooooooooooo . ",
" . ooooooooooo    ooooooooooo.. ",
" . ooooooooooo    ooooooooooo.. ",
"   ooooooooooo    ooooooooooo   ",
"                                "
};
